<svg xmlns="http://www.w3.org/2000/svg" viewBox="0 0 226.99 194.78"><defs><style>.cls-1{fill:#101010;}.cls-2{fill:#fff;}</style></defs><title>Asset 2</title><g id="Layer_2" data-name="Layer 2"><g id="Layer_1-2" data-name="Layer 1"><path class="cls-1" d="M143.76,100,98.83,126.11A5.93,5.93,0,0,1,89.92,121V68.69a5.93,5.93,0,0,1,8.91-5.13l44.93,26.15A5.93,5.93,0,0,1,143.76,100Z"/><path class="cls-1" d="M0,0V194.78H227V0ZM120.44,9.39l19.64,0V29.12l-19.64-.06Zm-33.68-.1,19.62.06V29L86.76,29ZM53.07,9.22l19.63.06V29l-19.63,0ZM39,183.49l-19.61-.06V163.76l19.61,0ZM39,28.87l-19.61-.06V9.14L39,9.18ZM72.7,183.56l-19.63,0V163.84l19.63,0Zm33.68.1-19.62-.06V163.91l19.62.06Zm33.7.08-19.64-.06V164l19.64,0Zm-26.74-35.45a53.46,53.46,0,1,1,53.44-53.45A53.45,53.45,0,0,1,113.34,148.29Zm60.44,35.52-19.64,0V164.08l19.64.06Zm0-154.62-19.64,0V9.47l19.64,0Zm33.68,154.62-19.64,0V164.08l19.64.06Zm0-154.62-19.64,0V9.47l19.64,0Z"/><path class="cls-2" d="M143.76,100,98.83,126.11A5.93,5.93,0,0,1,89.92,121V68.69a5.93,5.93,0,0,1,8.91-5.13l44.93,26.15A5.93,5.93,0,0,1,143.76,100Z"/><path class="cls-1" d="M143.76,100,98.83,126.11A5.93,5.93,0,0,1,89.92,121V68.69a5.93,5.93,0,0,1,8.91-5.13l44.93,26.15A5.93,5.93,0,0,1,143.76,100Z"/></g></g></svg>